# Blender 4.2.0
# www.blender.org
o Board
v -0.324230 -0.025000 0.250000
v -0.400000 -0.025000 0.174230
v -0.336955 -0.025000 0.249867
v -0.349648 -0.025000 0.248961
v -0.362137 -0.025000 0.246515
v -0.373935 -0.025000 0.241746
v -0.384131 -0.025000 0.234131
v -0.391746 -0.025000 0.223935
v -0.396515 -0.025000 0.212137
v -0.398961 -0.025000 0.199648
v -0.399867 -0.025000 0.186955
v -0.400000 0.025000 0.174230
v -0.324230 0.025000 0.250000
v -0.399867 0.025000 0.186955
v -0.398961 0.025000 0.199648
v -0.396515 0.025000 0.212137
v -0.391746 0.025000 0.223935
v -0.384131 0.025000 0.234131
v -0.373935 0.025000 0.241746
v -0.362137 0.025000 0.246515
v -0.349648 0.025000 0.248961
v -0.336955 0.025000 0.249867
v -0.400000 -0.025000 -0.174230
v -0.324230 -0.025000 -0.250000
v -0.399867 -0.025000 -0.186955
v -0.398961 -0.025000 -0.199648
v -0.396515 -0.025000 -0.212137
v -0.391746 -0.025000 -0.223935
v -0.384131 -0.025000 -0.234131
v -0.373935 -0.025000 -0.241746
v -0.362137 -0.025000 -0.246515
v -0.349648 -0.025000 -0.248961
v -0.336955 -0.025000 -0.249867
v -0.324230 0.025000 -0.250000
v -0.400000 0.025000 -0.174230
v -0.336955 0.025000 -0.249867
v -0.349648 0.025000 -0.248961
v -0.362137 0.025000 -0.246515
v -0.373935 0.025000 -0.241746
v -0.384131 0.025000 -0.234131
v -0.391746 0.025000 -0.223935
v -0.396515 0.025000 -0.212137
v -0.398961 0.025000 -0.199648
v -0.399867 0.025000 -0.186955
v 0.400000 -0.025000 0.174230
v 0.324230 -0.025000 0.250000
v 0.399867 -0.025000 0.186955
v 0.398961 -0.025000 0.199648
v 0.396515 -0.025000 0.212137
v 0.391746 -0.025000 0.223935
v 0.384131 -0.025000 0.234131
v 0.373935 -0.025000 0.241746
v 0.362137 -0.025000 0.246515
v 0.349648 -0.025000 0.248961
v 0.336955 -0.025000 0.249867
v 0.324230 0.025000 0.250000
v 0.400000 0.025000 0.174230
v 0.336955 0.025000 0.249867
v 0.349648 0.025000 0.248961
v 0.362137 0.025000 0.246515
v 0.373935 0.025000 0.241746
v 0.384131 0.025000 0.234131
v 0.391746 0.025000 0.223935
v 0.396515 0.025000 0.212137
v 0.398961 0.025000 0.199648
v 0.399867 0.025000 0.186955
v 0.324230 -0.025000 -0.250000
v 0.400000 -0.025000 -0.174230
v 0.336955 -0.025000 -0.249867
v 0.349648 -0.025000 -0.248961
v 0.362137 -0.025000 -0.246515
v 0.373935 -0.025000 -0.241746
v 0.384131 -0.025000 -0.234131
v 0.391746 -0.025000 -0.223935
v 0.396515 -0.025000 -0.212137
v 0.398961 -0.025000 -0.199648
v 0.399867 -0.025000 -0.186955
v 0.400000 0.025000 -0.174230
v 0.324230 0.025000 -0.250000
v 0.399867 0.025000 -0.186955
v 0.398961 0.025000 -0.199648
v 0.396515 0.025000 -0.212137
v 0.391746 0.025000 -0.223935
v 0.384131 0.025000 -0.234131
v 0.373935 0.025000 -0.241746
v 0.362137 0.025000 -0.246515
v 0.349648 0.025000 -0.248961
v 0.336955 0.025000 -0.249867
v -0.335000 0.025000 0.115331
v -0.335000 0.025000 -0.115331
v -0.334581 0.025000 -0.120255
v -0.332622 0.025000 0.124868
v -0.334581 0.025000 0.120255
v -0.328742 0.025000 0.128360
v -0.323617 0.025000 -0.130122
v -0.323617 0.025000 0.130122
v -0.328742 0.025000 -0.128360
v -0.318145 0.025000 0.130500
v -0.318145 0.025000 -0.130500
v -0.332622 0.025000 -0.124868
v -0.301258 0.025000 0.128360
v -0.306383 0.025000 0.130122
v -0.306383 0.025000 -0.130122
v -0.297378 0.025000 -0.124868
v -0.295000 0.025000 0.115331
v -0.295000 0.025000 -0.115331
v -0.295419 0.025000 -0.120255
v -0.297378 0.025000 0.124868
v -0.295419 0.025000 0.120255
v -0.311855 0.025000 0.130500
v -0.311855 0.025000 -0.130500
v -0.301258 0.025000 -0.128360
v -0.335000 -0.025000 0.115331
v -0.335000 -0.025000 -0.115331
v -0.334581 -0.025000 0.120255
v -0.332622 -0.025000 0.124868
v -0.334581 -0.025000 -0.120255
v -0.328742 -0.025000 -0.128360
v -0.323617 -0.025000 0.130122
v -0.328742 -0.025000 0.128360
v -0.323617 -0.025000 -0.130122
v -0.318145 -0.025000 0.130500
v -0.318145 -0.025000 -0.130500
v -0.332622 -0.025000 -0.124868
v -0.301258 -0.025000 -0.128360
v -0.306383 -0.025000 0.130122
v -0.306383 -0.025000 -0.130122
v -0.297378 -0.025000 0.124868
v -0.295000 -0.025000 0.115331
v -0.295000 -0.025000 -0.115331
v -0.295419 -0.025000 -0.120255
v -0.295419 -0.025000 0.120255
v -0.297378 -0.025000 -0.124868
v -0.301258 -0.025000 0.128360
v -0.311855 -0.025000 0.130500
v -0.311855 -0.025000 -0.130500
vn -0.0000 -0.0000 1.0000
vn 1.0000 -0.0000 -0.0000
vn -0.0000 1.0000 -0.0000
vn -1.0000 -0.0000 -0.0000
vn -0.0000 -0.0000 -1.0000
vn -0.0105 -0.0000 0.9999
vn -0.0711 -0.0000 0.9975
vn -0.1922 -0.0000 0.9813
vn -0.3748 -0.0000 0.9271
vn -0.5984 -0.0000 0.8012
vn -0.8012 -0.0000 0.5984
vn -0.9271 -0.0000 0.3748
vn -0.9813 -0.0000 0.1922
vn -0.9975 -0.0000 0.0711
vn -0.9999 -0.0000 0.0105
vn -0.0105 -0.0000 -0.9999
vn -0.0711 -0.0000 -0.9975
vn -0.1922 -0.0000 -0.9813
vn -0.3748 -0.0000 -0.9271
vn -0.5984 -0.0000 -0.8012
vn -0.8012 -0.0000 -0.5984
vn -0.9271 -0.0000 -0.3748
vn -0.9813 -0.0000 -0.1922
vn -0.9975 -0.0000 -0.0711
vn -0.9999 -0.0000 -0.0105
vn 0.9999 -0.0000 -0.0105
vn 0.9975 -0.0000 -0.0711
vn 0.9813 -0.0000 -0.1922
vn 0.9271 -0.0000 -0.3748
vn 0.8012 -0.0000 -0.5984
vn 0.5984 -0.0000 -0.8012
vn 0.3748 -0.0000 -0.9271
vn 0.1922 -0.0000 -0.9813
vn 0.0711 -0.0000 -0.9975
vn 0.0105 -0.0000 -0.9999
vn 0.0105 -0.0000 0.9999
vn 0.0711 -0.0000 0.9975
vn 0.1922 -0.0000 0.9813
vn 0.3748 -0.0000 0.9271
vn 0.5984 -0.0000 0.8012
vn 0.8012 -0.0000 0.5984
vn 0.9271 -0.0000 0.3748
vn 0.9813 -0.0000 0.1922
vn 0.9975 -0.0000 0.0711
vn 0.9999 -0.0000 0.0105
vn -0.0000 -1.0000 -0.0000
vn 0.0688 -0.0000 -0.9976
vn 0.3251 -0.0000 -0.9457
vn 0.6690 -0.0000 -0.7433
vn 0.9205 -0.0000 -0.3907
vn 0.9964 -0.0000 -0.0849
vn 0.0688 -0.0000 0.9976
vn 0.3251 -0.0000 0.9457
vn 0.6690 -0.0000 0.7433
vn 0.9205 -0.0000 0.3907
vn 0.9964 -0.0000 0.0849
vn -0.9964 -0.0000 0.0849
vn -0.9205 -0.0000 0.3907
vn -0.6690 -0.0000 0.7433
vn -0.3251 -0.0000 0.9457
vn -0.0688 -0.0000 0.9976
vn -0.0688 -0.0000 -0.9976
vn -0.3251 -0.0000 -0.9457
vn -0.6690 -0.0000 -0.7433
vn -0.9205 -0.0000 -0.3907
vn -0.9964 -0.0000 -0.0849
vt 0.625000 0.773678
vt 0.375000 0.976322
vt 0.375000 0.773678
vt 0.625000 0.537885
vt 0.375000 0.712115
vt 0.375000 0.537885
vt 0.875000 0.712115
vt 0.854556 0.564873
vt 0.870041 0.507934
vt 0.842188 0.567334
vt 0.842188 0.682665
vt 0.627579 0.736967
vt 0.625000 0.037885
vt 0.375000 0.212115
vt 0.375000 0.037885
vt 0.625000 0.273678
vt 0.375000 0.476322
vt 0.375000 0.273678
vt 0.625000 0.976322
vt 0.375000 0.980298
vt 0.625000 0.980298
vt 0.375000 0.984265
vt 0.625000 0.984265
vt 0.375000 0.988168
vt 0.625000 0.988168
vt 0.375000 0.991855
vt 0.625000 0.991855
vt 0.375000 1.000000
vt 0.625000 0.000000
vt 0.375000 0.013032
vt 0.375000 0.000000
vt 0.625000 0.013033
vt 0.375000 0.018932
vt 0.625000 0.018932
vt 0.375000 0.025176
vt 0.625000 0.025176
vt 0.375000 0.031523
vt 0.625000 0.031523
vt 0.625000 0.269702
vt 0.375000 0.269702
vt 0.625000 0.265735
vt 0.375000 0.265735
vt 0.625000 0.261832
vt 0.375000 0.261832
vt 0.625000 0.258145
vt 0.375000 0.258145
vt 0.625000 0.250000
vt 0.375000 0.250000
vt 0.625000 0.236968
vt 0.375000 0.236968
vt 0.625000 0.231068
vt 0.375000 0.231068
vt 0.625000 0.224824
vt 0.375000 0.224824
vt 0.625000 0.218477
vt 0.375000 0.218477
vt 0.625000 0.212115
vt 0.625000 0.531523
vt 0.375000 0.531523
vt 0.625000 0.525176
vt 0.375000 0.525176
vt 0.625000 0.518932
vt 0.375000 0.518932
vt 0.625000 0.513032
vt 0.375000 0.513032
vt 0.625000 0.500000
vt 0.375000 0.500000
vt 0.625000 0.491855
vt 0.375000 0.491855
vt 0.625000 0.488168
vt 0.375000 0.488168
vt 0.625000 0.484265
vt 0.375000 0.484265
vt 0.625000 0.480298
vt 0.375000 0.480298
vt 0.625000 0.476322
vt 0.625000 0.769702
vt 0.375000 0.769702
vt 0.625000 0.765735
vt 0.375000 0.765735
vt 0.625000 0.761832
vt 0.375000 0.761832
vt 0.625000 0.758145
vt 0.375000 0.758145
vt 0.625000 0.750000
vt 0.375000 0.750000
vt 0.625000 0.736968
vt 0.375000 0.736968
vt 0.625000 0.731068
vt 0.375000 0.731068
vt 0.625000 0.724824
vt 0.375000 0.724824
vt 0.625000 0.718477
vt 0.375000 0.718477
vt 0.625000 0.712115
vt 0.157813 0.682665
vt 0.157813 0.567335
vt 0.355298 0.500067
vt 0.125325 0.525176
vt 0.145444 0.564873
vt 0.145313 0.567334
vt 0.531250 0.855341
vt 0.468750 0.894659
vt 0.531250 0.894659
vt 0.531250 0.514530
vt 0.468750 0.735470
vt 0.531250 0.735470
vt 0.531250 0.235470
vt 0.468750 0.014530
vt 0.468750 0.235470
vt 0.531250 0.394659
vt 0.468750 0.355341
vt 0.468750 0.394659
vt 0.468750 0.928853
vt 0.531250 0.928853
vt 0.468750 1.000000
vt 0.531250 1.000000
vt 0.531250 0.000000
vt 0.468750 0.005394
vt 0.531250 0.005394
vt 0.531250 0.009813
vt 0.468750 0.009813
vt 0.531250 0.014530
vt 0.531250 0.355341
vt 0.468750 0.321147
vt 0.531250 0.321147
vt 0.468750 0.289110
vt 0.531250 0.289110
vt 0.468750 0.244606
vt 0.531250 0.244606
vt 0.468750 0.240187
vt 0.531250 0.240187
vt 0.531250 0.509813
vt 0.468750 0.514530
vt 0.531250 0.505394
vt 0.468750 0.509813
vt 0.468750 0.460890
vt 0.468750 0.505394
vt 0.531250 0.460890
vt 0.468750 0.428853
vt 0.531250 0.428853
vt 0.531250 0.821147
vt 0.468750 0.855341
vt 0.531250 0.789110
vt 0.468750 0.821147
vt 0.531250 0.744605
vt 0.468750 0.789110
vt 0.531250 0.740187
vt 0.468750 0.744605
vt 0.468750 0.740187
vt 0.873911 0.518932
vt 0.874675 0.525176
vt 0.874958 0.531523
vt 0.875000 0.537885
vt 0.874958 0.718477
vt 0.853945 0.687434
vt 0.854556 0.685127
vt 0.872421 0.513032
vt 0.852732 0.560820
vt 0.866855 0.504127
vt 0.853944 0.562566
vt 0.854687 0.682665
vt 0.854688 0.567334
vt 0.626089 0.731068
vt 0.625325 0.724824
vt 0.625042 0.718477
vt 0.625042 0.531523
vt 0.625325 0.525176
vt 0.626089 0.518932
vt 0.627579 0.513032
vt 0.629959 0.507934
vt 0.633145 0.504127
vt 0.636832 0.501743
vt 0.640735 0.500519
vt 0.644702 0.500067
vt 0.648678 0.500000
vt 0.851322 0.500000
vt 0.855298 0.500067
vt 0.859265 0.500519
vt 0.863168 0.501743
vt 0.851130 0.559939
vt 0.633145 0.745873
vt 0.629959 0.742066
vt 0.640735 0.749481
vt 0.636832 0.748257
vt 0.648678 0.750000
vt 0.644702 0.749933
vt 0.855298 0.749933
vt 0.851322 0.750000
vt 0.863168 0.748258
vt 0.859265 0.749481
vt 0.870041 0.742066
vt 0.866855 0.745873
vt 0.873911 0.731068
vt 0.872421 0.736967
vt 0.874675 0.724824
vt 0.852732 0.689180
vt 0.851130 0.690061
vt 0.849420 0.559750
vt 0.849420 0.690250
vt 0.847455 0.690250
vt 0.847455 0.559750
vt 0.845745 0.559939
vt 0.845745 0.690061
vt 0.844143 0.560820
vt 0.842930 0.562566
vt 0.844143 0.689180
vt 0.842930 0.687434
vt 0.842319 0.564873
vt 0.842318 0.685127
vt 0.625000 1.000000
vt 0.373911 0.518932
vt 0.374675 0.525176
vt 0.374958 0.531523
vt 0.374958 0.718477
vt 0.374675 0.724824
vt 0.373911 0.731068
vt 0.372421 0.736967
vt 0.370041 0.742066
vt 0.366855 0.745873
vt 0.363168 0.748258
vt 0.359265 0.749481
vt 0.355298 0.749933
vt 0.351322 0.750000
vt 0.148678 0.750000
vt 0.144702 0.749933
vt 0.140735 0.749481
vt 0.136832 0.748257
vt 0.133145 0.745873
vt 0.129959 0.742066
vt 0.127579 0.736967
vt 0.147268 0.689180
vt 0.148870 0.690061
vt 0.370041 0.507934
vt 0.372421 0.513032
vt 0.363168 0.501743
vt 0.366855 0.504127
vt 0.359265 0.500519
vt 0.148678 0.500000
vt 0.351322 0.500000
vt 0.140735 0.500519
vt 0.144702 0.500067
vt 0.148870 0.559939
vt 0.136832 0.501743
vt 0.150579 0.559750
vt 0.150580 0.690250
vt 0.152545 0.690250
vt 0.152545 0.559750
vt 0.154255 0.690061
vt 0.155857 0.689180
vt 0.154255 0.559939
vt 0.155857 0.560820
vt 0.157069 0.687434
vt 0.157069 0.562566
vt 0.157681 0.564873
vt 0.157681 0.685127
vt 0.126089 0.731068
vt 0.125325 0.724824
vt 0.125042 0.718477
vt 0.125000 0.712115
vt 0.125000 0.537885
vt 0.125042 0.531523
vt 0.126089 0.518932
vt 0.127579 0.513032
vt 0.129959 0.507934
vt 0.133145 0.504127
vt 0.147268 0.560820
vt 0.146055 0.687434
vt 0.145444 0.685127
vt 0.146056 0.562566
vt 0.145313 0.682665
vt 0.468750 0.000000
s 0
f 56/1/1 1/2/1 46/3/1
f 78/4/2 45/5/2 68/6/2
f 12/7/3 91/8/3 40/9/3
f 106/10/3 105/11/3 63/12/3
f 12/13/4 23/14/4 2/15/4
f 34/16/5 67/17/5 24/18/5
f 13/19/6 3/20/6 1/2/6
f 22/21/7 4/22/7 3/20/7
f 21/23/8 5/24/8 4/22/8
f 20/25/9 6/26/9 5/24/9
f 19/27/10 7/28/10 6/26/10
f 18/29/11 8/30/11 7/31/11
f 17/32/12 9/33/12 8/30/12
f 16/34/13 10/35/13 9/33/13
f 15/36/14 11/37/14 10/35/14
f 14/38/15 2/15/15 11/37/15
f 24/18/16 36/39/16 34/16/16
f 33/40/17 37/41/17 36/39/17
f 32/42/18 38/43/18 37/41/18
f 31/44/19 39/45/19 38/43/19
f 30/46/20 40/47/20 39/45/20
f 29/48/21 41/49/21 40/47/21
f 28/50/22 42/51/22 41/49/22
f 27/52/23 43/53/23 42/51/23
f 26/54/24 44/55/24 43/53/24
f 25/56/25 35/57/25 44/55/25
f 68/6/26 80/58/26 78/4/26
f 77/59/27 81/60/27 80/58/27
f 76/61/28 82/62/28 81/60/28
f 75/63/29 83/64/29 82/62/29
f 74/65/30 84/66/30 83/64/30
f 73/67/31 85/68/31 84/66/31
f 72/69/32 86/70/32 85/68/32
f 71/71/33 87/72/33 86/70/33
f 70/73/34 88/74/34 87/72/34
f 69/75/35 79/76/35 88/74/35
f 46/3/36 58/77/36 56/1/36
f 55/78/37 59/79/37 58/77/37
f 54/80/38 60/81/38 59/79/38
f 53/82/39 61/83/39 60/81/39
f 52/84/40 62/85/40 61/83/40
f 51/86/41 63/87/41 62/85/41
f 50/88/42 64/89/42 63/87/42
f 49/90/43 65/91/43 64/89/43
f 48/92/44 66/93/44 65/91/44
f 47/94/45 57/95/45 66/93/45
f 129/96/46 130/97/46 69/98/46
f 26/99/46 117/100/46 114/101/46
f 110/102/5 122/103/5 98/104/5
f 106/105/4 129/106/4 105/107/4
f 90/108/2 113/109/2 114/110/2
f 111/111/1 123/112/1 136/113/1
f 98/104/47 119/114/47 96/115/47
f 96/115/48 120/116/48 94/117/48
f 94/118/49 116/119/49 92/120/49
f 93/121/50 116/119/50 115/122/50
f 89/123/51 115/122/51 113/109/51
f 99/124/52 121/125/52 123/112/52
f 95/126/53 118/127/53 121/125/53
f 97/128/54 124/129/54 118/127/54
f 100/130/55 117/131/55 124/129/55
f 91/132/56 114/110/56 117/131/56
f 107/133/57 130/134/57 106/105/57
f 104/135/58 131/136/58 107/133/58
f 104/135/59 125/137/59 133/138/59
f 112/139/60 127/140/60 125/137/60
f 103/141/61 136/113/61 127/140/61
f 102/142/62 135/143/62 110/102/62
f 101/144/63 126/145/63 102/142/63
f 108/146/64 134/147/64 101/144/64
f 109/148/65 128/149/65 108/146/65
f 105/107/66 132/150/66 109/148/66
f 56/1/1 13/19/1 1/2/1
f 78/4/2 57/95/2 45/5/2
f 42/151/3 43/152/3 44/153/3
f 44/153/3 35/154/3 12/7/3
f 12/7/3 14/155/3 92/156/3
f 12/7/3 92/156/3 93/157/3
f 42/151/3 44/153/3 12/7/3
f 40/9/3 41/158/3 42/151/3
f 97/159/3 39/160/3 40/9/3
f 100/161/3 97/159/3 40/9/3
f 40/9/3 42/151/3 12/7/3
f 12/7/3 93/157/3 89/162/3
f 12/7/3 89/162/3 90/163/3
f 91/8/3 100/161/3 40/9/3
f 12/7/3 90/163/3 91/8/3
f 64/164/3 65/165/3 66/166/3
f 66/166/3 57/95/3 78/4/3
f 78/4/3 80/167/3 81/168/3
f 81/168/3 82/169/3 83/170/3
f 83/170/3 84/171/3 85/172/3
f 85/172/3 86/173/3 87/174/3
f 87/174/3 88/175/3 79/176/3
f 79/176/3 34/177/3 36/178/3
f 36/178/3 37/179/3 38/180/3
f 38/180/3 39/160/3 97/159/3
f 38/180/3 97/159/3 95/181/3
f 79/176/3 36/178/3 38/180/3
f 85/172/3 87/174/3 79/176/3
f 81/168/3 83/170/3 85/172/3
f 66/166/3 78/4/3 81/168/3
f 63/12/3 64/164/3 66/166/3
f 61/182/3 62/183/3 63/12/3
f 59/184/3 60/185/3 61/182/3
f 56/186/3 58/187/3 59/184/3
f 22/188/3 13/189/3 56/186/3
f 20/190/3 21/191/3 22/188/3
f 18/192/3 19/193/3 20/190/3
f 16/194/3 17/195/3 18/192/3
f 14/155/3 15/196/3 16/194/3
f 94/197/3 92/156/3 14/155/3
f 96/198/3 94/197/3 14/155/3
f 14/155/3 16/194/3 18/192/3
f 18/192/3 20/190/3 22/188/3
f 22/188/3 56/186/3 59/184/3
f 59/184/3 61/182/3 63/12/3
f 63/12/3 66/166/3 81/168/3
f 81/168/3 85/172/3 79/176/3
f 79/176/3 38/180/3 95/181/3
f 79/176/3 95/181/3 99/199/3
f 63/12/3 81/168/3 79/176/3
f 22/188/3 59/184/3 63/12/3
f 14/155/3 18/192/3 22/188/3
f 98/200/3 96/198/3 14/155/3
f 110/201/3 98/200/3 14/155/3
f 14/155/3 22/188/3 63/12/3
f 79/176/3 99/199/3 111/202/3
f 79/176/3 111/202/3 103/203/3
f 110/201/3 14/155/3 63/12/3
f 102/204/3 110/201/3 63/12/3
f 79/176/3 103/203/3 112/205/3
f 79/176/3 112/205/3 104/206/3
f 101/207/3 102/204/3 63/12/3
f 108/208/3 101/207/3 63/12/3
f 63/12/3 79/176/3 104/206/3
f 63/12/3 104/206/3 107/209/3
f 109/210/3 108/208/3 63/12/3
f 105/11/3 109/210/3 63/12/3
f 63/12/3 107/209/3 106/10/3
f 12/13/4 35/57/4 23/14/4
f 34/16/5 79/76/5 67/17/5
f 13/19/6 22/21/6 3/20/6
f 22/21/7 21/23/7 4/22/7
f 21/23/8 20/25/8 5/24/8
f 20/25/9 19/27/9 6/26/9
f 19/27/10 18/211/10 7/28/10
f 18/29/11 17/32/11 8/30/11
f 17/32/12 16/34/12 9/33/12
f 16/34/13 15/36/13 10/35/13
f 15/36/14 14/38/14 11/37/14
f 14/38/15 12/13/15 2/15/15
f 24/18/16 33/40/16 36/39/16
f 33/40/17 32/42/17 37/41/17
f 32/42/18 31/44/18 38/43/18
f 31/44/19 30/46/19 39/45/19
f 30/46/20 29/48/20 40/47/20
f 29/48/21 28/50/21 41/49/21
f 28/50/22 27/52/22 42/51/22
f 27/52/23 26/54/23 43/53/23
f 26/54/24 25/56/24 44/55/24
f 25/56/25 23/14/25 35/57/25
f 68/6/26 77/59/26 80/58/26
f 77/59/27 76/61/27 81/60/27
f 76/61/28 75/63/28 82/62/28
f 75/63/29 74/65/29 83/64/29
f 74/65/30 73/67/30 84/66/30
f 73/67/31 72/69/31 85/68/31
f 72/69/32 71/71/32 86/70/32
f 71/71/33 70/73/33 87/72/33
f 70/73/34 69/75/34 88/74/34
f 69/75/35 67/17/35 79/76/35
f 46/3/36 55/78/36 58/77/36
f 55/78/37 54/80/37 59/79/37
f 54/80/38 53/82/38 60/81/38
f 53/82/39 52/84/39 61/83/39
f 52/84/40 51/86/40 62/85/40
f 51/86/41 50/88/41 63/87/41
f 50/88/42 49/90/42 64/89/42
f 49/90/43 48/92/43 65/91/43
f 48/92/44 47/94/44 66/93/44
f 47/94/45 45/5/45 57/95/45
f 75/212/46 76/213/46 77/214/46
f 77/214/46 68/6/46 45/5/46
f 45/5/46 47/215/46 48/216/46
f 48/216/46 49/217/46 50/218/46
f 50/218/46 51/219/46 52/220/46
f 52/220/46 53/221/46 54/222/46
f 54/222/46 55/223/46 46/224/46
f 46/224/46 1/225/46 3/226/46
f 3/226/46 4/227/46 5/228/46
f 5/228/46 6/229/46 7/230/46
f 7/230/46 8/231/46 120/232/46
f 7/230/46 120/232/46 119/233/46
f 3/226/46 5/228/46 7/230/46
f 54/222/46 46/224/46 3/226/46
f 50/218/46 52/220/46 54/222/46
f 45/5/46 48/216/46 50/218/46
f 75/212/46 77/214/46 45/5/46
f 73/234/46 74/235/46 75/212/46
f 71/236/46 72/237/46 73/234/46
f 69/98/46 70/238/46 71/236/46
f 24/239/46 67/240/46 69/98/46
f 32/241/46 33/242/46 24/239/46
f 121/243/46 31/244/46 32/241/46
f 123/245/46 121/243/46 32/241/46
f 32/241/46 24/239/46 69/98/46
f 69/98/46 71/236/46 73/234/46
f 73/234/46 75/212/46 45/5/46
f 45/5/46 50/218/46 54/222/46
f 54/222/46 3/226/46 7/230/46
f 7/230/46 119/233/46 122/246/46
f 7/230/46 122/246/46 135/247/46
f 45/5/46 54/222/46 7/230/46
f 69/98/46 73/234/46 45/5/46
f 123/245/46 32/241/46 69/98/46
f 136/248/46 123/245/46 69/98/46
f 69/98/46 45/5/46 7/230/46
f 7/230/46 135/247/46 126/249/46
f 7/230/46 126/249/46 134/250/46
f 127/251/46 136/248/46 69/98/46
f 125/252/46 127/251/46 69/98/46
f 69/98/46 7/230/46 134/250/46
f 69/98/46 134/250/46 128/253/46
f 133/254/46 125/252/46 69/98/46
f 131/255/46 133/254/46 69/98/46
f 69/98/46 128/253/46 132/256/46
f 69/98/46 132/256/46 129/96/46
f 130/97/46 131/255/46 69/98/46
f 9/257/46 10/258/46 11/259/46
f 11/259/46 2/260/46 23/261/46
f 23/261/46 25/262/46 26/99/46
f 26/99/46 27/263/46 28/264/46
f 28/264/46 29/265/46 30/266/46
f 30/266/46 31/244/46 121/243/46
f 30/266/46 121/243/46 118/267/46
f 26/99/46 28/264/46 30/266/46
f 11/259/46 23/261/46 26/99/46
f 8/231/46 9/257/46 11/259/46
f 116/268/46 120/232/46 8/231/46
f 115/269/46 116/268/46 8/231/46
f 8/231/46 11/259/46 26/99/46
f 26/99/46 30/266/46 118/267/46
f 26/99/46 118/267/46 124/270/46
f 115/269/46 8/231/46 26/99/46
f 113/271/46 115/269/46 26/99/46
f 26/99/46 124/270/46 117/100/46
f 114/101/46 113/271/46 26/99/46
f 110/102/5 135/143/5 122/103/5
f 106/105/4 130/134/4 129/106/4
f 90/108/2 89/123/2 113/109/2
f 111/111/1 99/124/1 123/112/1
f 98/104/47 122/103/47 119/114/47
f 96/115/48 119/114/48 120/116/48
f 94/118/49 120/272/49 116/119/49
f 93/121/50 92/120/50 116/119/50
f 89/123/51 93/121/51 115/122/51
f 99/124/52 95/126/52 121/125/52
f 95/126/53 97/128/53 118/127/53
f 97/128/54 100/130/54 124/129/54
f 100/130/55 91/132/55 117/131/55
f 91/132/56 90/108/56 114/110/56
f 107/133/57 131/136/57 130/134/57
f 104/135/58 133/138/58 131/136/58
f 104/135/59 112/139/59 125/137/59
f 112/139/60 103/141/60 127/140/60
f 103/141/61 111/111/61 136/113/61
f 102/142/62 126/145/62 135/143/62
f 101/144/63 134/147/63 126/145/63
f 108/146/64 128/149/64 134/147/64
f 109/148/65 132/150/65 128/149/65
f 105/107/66 129/106/66 132/150/66
