# Blender 4.3.2
# www.blender.org
o Plane.001
v -1.540000 0.000000 1.012500
v 1.540000 0.000000 1.012500
v -1.540000 0.000000 -1.012500
v 1.540000 0.000000 -1.012500
v -1.000000 0.000000 0.713676
v -0.997235 0.000000 0.727577
v -0.977577 0.000000 0.747235
v -0.963676 0.000000 0.750000
v -0.989361 0.000000 0.739361
v 0.989361 0.000000 0.739361
v 0.977577 0.000000 0.747235
v 0.963676 0.000000 0.750000
v 0.997235 0.000000 0.727577
v 1.000000 0.000000 0.713676
v -1.000000 0.000000 -0.713676
v -0.977577 0.000000 -0.747235
v -0.989361 0.000000 -0.739361
v -0.997235 0.000000 -0.727577
v 0.977577 0.000000 -0.747235
v 1.000000 0.000000 -0.713676
v 0.997235 0.000000 -0.727577
v 0.989361 0.000000 -0.739361
v 0.963676 0.000000 -0.750000
v -0.963676 0.000000 -0.750000
v 1.293490 0.000000 0.890221
v 1.085817 0.000000 0.787207
v -1.293490 0.000000 0.890221
v -1.085817 0.000000 0.787207
v -1.085817 0.000000 0.766321
v 1.085817 0.000000 0.766321
v 1.085817 0.000000 0.456629
v 1.088073 0.000000 0.470176
v 1.088073 0.000000 0.752774
v 1.094497 0.000000 0.741289
v 1.104112 0.000000 0.733616
v 1.115453 0.000000 0.492029
v 1.115453 0.000000 0.730921
v 1.219179 0.000000 0.730921
v 1.219179 0.000000 0.492029
v 1.104112 0.000000 0.489334
v 1.094497 0.000000 0.481660
v 1.219179 0.000000 0.093837
v 1.219179 0.000000 0.332728
v 1.322906 0.000000 0.332728
v 1.322906 0.000000 0.093837
v 1.322906 0.000000 -0.065464
v 1.322906 0.000000 -0.304356
v 1.334247 0.000000 0.733616
v 1.334247 0.000000 0.489334
v 1.334247 0.000000 0.335423
v 1.334247 0.000000 0.091142
v 1.322906 0.000000 0.890221
v 1.322906 0.000000 0.730921
v 1.322906 0.000000 0.492029
v 1.343862 0.000000 0.741289
v 1.343862 0.000000 0.481660
v 1.343862 0.000000 0.343097
v 1.334247 0.000000 -0.307050
v 1.350286 0.000000 0.752774
v 1.350286 0.000000 0.470176
v 1.343862 0.000000 -0.055095
v 1.343862 0.000000 -0.314724
v 1.343862 0.000000 0.879853
v 1.343862 0.000000 0.083468
v 1.350286 0.000000 0.071984
v 1.350286 0.000000 0.354582
v 1.350286 0.000000 -0.326209
v 1.350286 0.000000 -0.043611
v 1.352542 0.000000 -0.030064
v 1.352542 0.000000 -0.339756
v 1.352542 0.000000 0.766321
v 1.352542 0.000000 0.456629
v 1.352542 0.000000 0.368129
v 1.352542 0.000000 0.058437
v 1.352542 0.000000 0.854821
v 1.350286 0.000000 0.868368
v 1.334247 0.000000 0.887527
v 1.334247 0.000000 -0.062769
v -1.352542 0.000000 0.854821
v -1.352542 0.000000 0.766321
v -1.352542 0.000000 0.456629
v -1.352542 0.000000 0.368129
v -1.352542 0.000000 0.058437
v -1.352542 0.000000 -0.030064
v -1.352542 0.000000 -0.339756
v -1.350286 0.000000 0.868368
v -1.350286 0.000000 0.752774
v -1.350286 0.000000 0.470176
v -1.350286 0.000000 0.071984
v -1.350286 0.000000 0.354582
v -1.350286 0.000000 -0.326209
v -1.350286 0.000000 -0.043611
v -1.343862 0.000000 0.741289
v -1.343862 0.000000 0.481660
v -1.343862 0.000000 0.343097
v -1.343862 0.000000 0.083468
v -1.343862 0.000000 -0.055095
v -1.343862 0.000000 -0.314724
v -1.343862 0.000000 0.879853
v -1.334247 0.000000 0.489334
v -1.334247 0.000000 0.733616
v -1.334247 0.000000 0.091142
v -1.334247 0.000000 0.335423
v -1.322906 0.000000 -0.065464
v -1.322906 0.000000 -0.304356
v -1.322906 0.000000 0.492029
v -1.322906 0.000000 0.730921
v -1.322906 0.000000 0.890221
v -1.322906 0.000000 0.332728
v -1.322906 0.000000 0.093837
v -1.334247 0.000000 -0.307050
v -1.334247 0.000000 -0.062769
v -1.219179 0.000000 0.332728
v -1.219179 0.000000 0.093837
v -1.104112 0.000000 0.733616
v -1.115453 0.000000 0.730921
v -1.115453 0.000000 0.492029
v -1.094497 0.000000 0.481660
v -1.085817 0.000000 0.456629
v -1.088073 0.000000 0.470176
v -1.088073 0.000000 0.752774
v -1.094497 0.000000 0.741289
v -1.109782 0.000000 0.490682
v -1.104112 0.000000 0.489334
v -1.334247 0.000000 0.887527
v -1.352542 0.000000 -0.428256
v -1.352542 0.000000 -0.737948
v -1.352542 0.000000 -0.826448
v -1.350286 0.000000 -0.441803
v -1.350286 0.000000 -0.724401
v -1.350286 0.000000 -0.839995
v -1.343862 0.000000 -0.453288
v -1.343862 0.000000 -0.712917
v -1.334247 0.000000 -0.705243
v -1.334247 0.000000 -0.460961
v -1.343862 0.000000 -0.851480
v -1.334247 0.000000 -0.859154
v -1.322906 0.000000 -0.463656
v -1.322906 0.000000 -0.702548
v -1.219179 0.000000 -0.463656
v -1.219179 0.000000 -0.702548
v -1.115453 0.000000 0.332728
v -1.115453 0.000000 0.093837
v -1.115453 0.000000 -0.065464
v -1.115453 0.000000 -0.304356
v -1.115453 0.000000 -0.463656
v -1.115453 0.000000 -0.702548
v -1.322906 0.000000 -0.861849
v -1.104112 0.000000 0.091142
v -1.104112 0.000000 0.335423
v -1.104112 0.000000 -0.307050
v -1.104112 0.000000 -0.062769
v -1.094497 0.000000 0.343097
v -1.094497 0.000000 0.083468
v -1.094497 0.000000 -0.055095
v -1.094497 0.000000 -0.314724
v -1.094497 0.000000 -0.712917
v -1.094497 0.000000 -0.453288
v -1.104112 0.000000 -0.705243
v -1.088073 0.000000 0.071984
v -1.088073 0.000000 0.354582
v -1.088073 0.000000 -0.326209
v -1.088073 0.000000 -0.043611
v -1.085817 0.000000 -0.761165
v -1.085817 0.000000 -0.737948
v -1.085817 0.000000 -0.339756
v -1.085817 0.000000 -0.428256
v -1.085817 0.000000 0.368129
v -1.085817 0.000000 0.058437
v -1.085817 0.000000 -0.030064
v -1.088073 0.000000 -0.441803
v -1.088073 0.000000 -0.724401
v -1.104112 0.000000 -0.460961
v 1.085817 0.000000 0.368129
v 1.085817 0.000000 0.058437
v 1.085817 0.000000 -0.030064
v 1.085817 0.000000 -0.339756
v 1.085817 0.000000 -0.428256
v 1.088073 0.000000 0.354582
v 1.088073 0.000000 0.071984
v 1.088073 0.000000 -0.043611
v 1.088073 0.000000 -0.326209
v 1.088073 0.000000 -0.441803
v 1.088073 0.000000 -0.724401
v 1.085817 0.000000 -0.737948
v 1.085817 0.000000 -0.761165
v 1.094497 0.000000 0.343097
v 1.094497 0.000000 0.083468
v 1.094497 0.000000 -0.055095
v 1.094497 0.000000 -0.314724
v 1.104112 0.000000 0.091142
v 1.104112 0.000000 0.335423
v 1.104112 0.000000 -0.062769
v 1.104112 0.000000 -0.307050
v 1.094497 0.000000 -0.453288
v 1.094497 0.000000 -0.712917
v 1.104112 0.000000 -0.460961
v 1.104112 0.000000 -0.705243
v 1.115453 0.000000 0.093837
v 1.115453 0.000000 0.332728
v 1.115453 0.000000 -0.065464
v 1.115453 0.000000 -0.304356
v 1.115453 0.000000 -0.463656
v 1.115453 0.000000 -0.702548
v 1.322906 0.000000 -0.463656
v 1.322906 0.000000 -0.702548
v 1.219179 0.000000 -0.702548
v 1.219179 0.000000 -0.463656
v 1.334247 0.000000 -0.705243
v 1.334247 0.000000 -0.460961
v 1.343862 0.000000 -0.453288
v 1.343862 0.000000 -0.712917
v 1.334247 0.000000 -0.859154
v 1.352542 0.000000 -0.737948
v 1.352542 0.000000 -0.826448
v 1.352542 0.000000 -0.428256
v 1.350286 0.000000 -0.441803
v 1.350286 0.000000 -0.724401
v 1.350286 0.000000 -0.839995
v 1.343862 0.000000 -0.851480
v 1.322906 0.000000 -0.861849
v -1.115453 0.000000 -0.861849
v -1.104112 0.000000 -0.859154
v -1.088073 0.000000 -0.839995
v -1.085817 0.000000 -0.826448
v -1.094497 0.000000 -0.851480
v 1.088073 0.000000 -0.839995
v 1.085817 0.000000 -0.826448
v 1.115453 0.000000 -0.861849
v 1.104112 0.000000 -0.859154
v 1.094497 0.000000 -0.851480
v 1.085817 0.000000 0.854821
v 1.088073 0.000000 0.868368
v 1.104112 0.000000 0.887527
v 1.115453 0.000000 0.890221
v 1.094497 0.000000 0.879853
v -1.115453 0.000000 0.890221
v -1.104112 0.000000 0.887527
v -1.088073 0.000000 0.868368
v -1.085817 0.000000 0.854821
v -1.094497 0.000000 0.879853
vn -0.0000 1.0000 -0.0000
vt 0.895837 0.257023
vt 0.862160 0.139052
vt 0.895837 0.139051
vt 0.000000 1.000000
vt 0.070485 0.532328
vt 0.061595 0.661091
vt 0.824675 0.852433
vt 0.852538 0.864419
vt 0.852538 0.875884
vt 0.895837 0.728966
vt 0.929515 0.846937
vt 0.895837 0.846937
vt 0.929515 0.453661
vt 0.895837 0.335690
vt 0.929515 0.335690
vt 0.175325 0.852433
vt 0.147462 0.875884
vt 0.147462 0.864419
vt 0.176222 0.140703
vt 0.137840 0.257023
vt 0.144644 0.133931
vt 0.104163 0.453661
vt 0.070485 0.335690
vt 0.104163 0.335690
vt 0.137840 0.846937
vt 0.104163 0.728966
vt 0.137840 0.728966
vt 0.144644 0.065505
vt 0.141522 0.061715
vt 1.000000 0.000000
vt 0.862160 0.257023
vt 0.855356 0.852058
vt 0.853270 0.857729
vt 0.824675 0.147567
vt 0.858478 0.848268
vt 0.823778 0.140703
vt 0.821221 0.134883
vt 0.852538 0.111256
vt 0.852538 0.121570
vt 0.862160 0.846937
vt 0.862160 0.728966
vt 0.853270 0.128260
vt 0.855356 0.133931
vt 0.858478 0.727635
vt 0.858478 0.137721
vt 0.858478 0.258353
vt 0.855356 0.723846
vt 0.853270 0.718174
vt 0.855356 0.262143
vt 0.852538 0.711485
vt 0.853270 0.267814
vt 0.852538 0.274504
vt 0.852538 0.667781
vt 0.853270 0.661091
vt 0.852538 0.318208
vt 0.853270 0.324898
vt 0.855356 0.655419
vt 0.858478 0.651630
vt 0.862160 0.650299
vt 0.862160 0.335690
vt 0.895837 0.453661
vt 0.862160 0.453661
vt 0.858478 0.334359
vt 0.858478 0.454992
vt 0.855356 0.330569
vt 0.855356 0.458781
vt 0.853270 0.464453
vt 0.929515 0.728966
vt 0.933197 0.727635
vt 0.933197 0.848268
vt 0.936318 0.723846
vt 0.936319 0.852058
vt 0.938405 0.718174
vt 0.938405 0.857729
vt 0.939137 0.711484
vt 0.939137 0.864419
vt 0.823778 0.859297
vt 0.852538 0.908123
vt 0.821221 0.865117
vt 0.853270 0.914812
vt 0.817395 0.869005
vt 0.855356 0.920484
vt 0.812882 0.870370
vt 0.858478 0.924273
vt 0.187118 0.870370
vt 0.862160 0.925604
vt 0.852538 0.471142
vt 0.176222 0.859297
vt 0.178779 0.865117
vt 0.147462 0.908122
vt 0.182605 0.869005
vt 0.146730 0.914812
vt 0.144644 0.920484
vt 0.141522 0.924273
vt 0.137840 0.925604
vt 0.852538 0.514846
vt 0.853270 0.521536
vt 0.855356 0.527208
vt 0.929515 0.650299
vt 0.858478 0.530997
vt 0.933197 0.651630
vt 0.862160 0.532328
vt 0.936319 0.655419
vt 0.929515 0.532328
vt 0.938405 0.661091
vt 0.933197 0.530997
vt 0.939137 0.667781
vt 0.936319 0.527207
vt 0.938405 0.521536
vt 0.939137 0.514846
vt 0.933197 0.454992
vt 0.933197 0.334359
vt 0.936319 0.458781
vt 0.936319 0.330569
vt 0.938405 0.464453
vt 0.938405 0.324898
vt 0.939137 0.471142
vt 0.939137 0.318208
vt 0.929515 0.257023
vt 0.929515 0.139051
vt 0.933197 0.258353
vt 0.933197 0.137721
vt 0.936319 0.262143
vt 0.936319 0.133931
vt 0.938405 0.267814
vt 0.938405 0.128260
vt 0.939137 0.274504
vt 0.939137 0.121570
vt 0.929515 0.060385
vt 0.919964 0.060385
vt 0.000000 0.000000
vt 0.080036 0.060385
vt 0.070485 0.060385
vt 0.066803 0.061715
vt 0.933197 0.061715
vt 0.936319 0.065505
vt 0.063681 0.065505
vt 0.061595 0.071176
vt 0.938405 0.071176
vt 0.939137 0.077866
vt 0.060863 0.077866
vt 0.060863 0.121570
vt 1.000000 1.000000
vt 0.061595 0.128260
vt 0.063681 0.133931
vt 0.066803 0.137721
vt 0.070485 0.139052
vt 0.137840 0.139052
vt 0.070485 0.257023
vt 0.066803 0.258353
vt 0.063681 0.262143
vt 0.939137 0.908123
vt 0.061595 0.267814
vt 0.060863 0.274504
vt 0.938405 0.914813
vt 0.936319 0.920484
vt 0.060863 0.318208
vt 0.933197 0.924273
vt 0.929515 0.925605
vt 0.061595 0.324898
vt 0.063681 0.330569
vt 0.066803 0.334359
vt 0.070485 0.453661
vt 0.066803 0.454992
vt 0.070485 0.925604
vt 0.063681 0.458781
vt 0.061595 0.464453
vt 0.066803 0.924273
vt 0.063681 0.920484
vt 0.060863 0.471142
vt 0.061595 0.914813
vt 0.060863 0.908123
vt 0.060863 0.514846
vt 0.061595 0.521536
vt 0.060863 0.864419
vt 0.061595 0.857729
vt 0.063681 0.527208
vt 0.066803 0.530997
vt 0.063681 0.852058
vt 0.104163 0.846937
vt 0.070485 0.846937
vt 0.070485 0.728966
vt 0.066803 0.848268
vt 0.066803 0.727635
vt 0.063681 0.723846
vt 0.137840 0.453661
vt 0.137840 0.335690
vt 0.141522 0.454992
vt 0.141522 0.334359
vt 0.144644 0.458781
vt 0.144644 0.330569
vt 0.146730 0.464453
vt 0.146730 0.324898
vt 0.147462 0.471142
vt 0.147462 0.318208
vt 0.141522 0.258353
vt 0.139681 0.257688
vt 0.175325 0.147567
vt 0.146730 0.857729
vt 0.144644 0.852058
vt 0.144644 0.262143
vt 0.146730 0.267814
vt 0.141522 0.848268
vt 0.141522 0.727635
vt 0.147462 0.274504
vt 0.144644 0.723846
vt 0.146730 0.718174
vt 0.147462 0.514846
vt 0.147462 0.711485
vt 0.147462 0.667781
vt 0.146730 0.661091
vt 0.144644 0.655419
vt 0.146730 0.521536
vt 0.141522 0.651630
vt 0.144644 0.527208
vt 0.137840 0.650299
vt 0.141522 0.530997
vt 0.070485 0.650299
vt 0.137840 0.532328
vt 0.066803 0.651630
vt 0.061595 0.718174
vt 0.063681 0.655419
vt 0.060863 0.711484
vt 0.060863 0.667781
vt 0.147462 0.121570
vt 0.147462 0.111256
vt 0.178779 0.134883
vt 0.146730 0.128260
vt 0.141522 0.137721
vt 0.852538 0.111256
vt 0.817395 0.130995
vt 0.812882 0.129630
vt 0.852538 0.077866
vt 0.187118 0.129630
vt 0.853270 0.071176
vt 0.182605 0.130995
vt 0.147462 0.111256
vt 0.855356 0.065505
vt 0.147462 0.077866
vt 0.858478 0.061715
vt 0.919964 0.060385
vt 0.862160 0.060385
vt 0.146730 0.071176
vt 0.080036 0.060385
vt 0.137840 0.060385
s 0
f 39/1/1 37/2/1 38/3/1
f 3/4/1 104/5/1 91/6/1
f 20/7/1 185/8/1 186/9/1
f 208/10/1 206/11/1 207/12/1
f 45/13/1 43/14/1 44/15/1
f 15/16/1 164/17/1 165/18/1
f 6/19/1 117/20/1 122/21/1
f 114/22/1 109/23/1 113/24/1
f 147/25/1 140/26/1 146/27/1
f 241/28/1 238/29/1 2/30/1
f 39/1/1 36/31/1 37/2/1
f 196/32/1 184/33/1 20/7/1
f 196/32/1 20/7/1 14/34/1
f 198/35/1 196/32/1 14/34/1
f 13/36/1 10/37/1 26/38/1
f 14/34/1 13/36/1 26/38/1
f 14/34/1 26/38/1 30/39/1
f 208/10/1 207/12/1 204/40/1
f 203/41/1 208/10/1 204/40/1
f 14/34/1 30/39/1 33/42/1
f 14/34/1 33/42/1 34/43/1
f 203/41/1 204/40/1 198/35/1
f 197/44/1 203/41/1 198/35/1
f 14/34/1 34/43/1 35/45/1
f 35/45/1 37/2/1 36/31/1
f 35/45/1 36/31/1 40/46/1
f 195/47/1 197/44/1 198/35/1
f 183/48/1 195/47/1 198/35/1
f 14/34/1 35/45/1 40/46/1
f 14/34/1 40/46/1 41/49/1
f 178/50/1 183/48/1 198/35/1
f 178/50/1 198/35/1 14/34/1
f 14/34/1 41/49/1 32/51/1
f 14/34/1 32/51/1 31/52/1
f 177/53/1 178/50/1 14/34/1
f 182/54/1 177/53/1 14/34/1
f 14/34/1 31/52/1 174/55/1
f 14/34/1 174/55/1 179/56/1
f 190/57/1 182/54/1 14/34/1
f 194/58/1 190/57/1 14/34/1
f 202/59/1 194/58/1 14/34/1
f 200/60/1 43/14/1 42/61/1
f 200/60/1 42/61/1 199/62/1
f 192/63/1 200/60/1 199/62/1
f 192/63/1 199/62/1 191/64/1
f 187/65/1 192/63/1 191/64/1
f 187/65/1 191/64/1 188/66/1
f 179/56/1 187/65/1 188/66/1
f 179/56/1 188/66/1 180/67/1
f 206/11/1 205/68/1 210/69/1
f 209/70/1 206/11/1 210/69/1
f 209/70/1 210/69/1 211/71/1
f 212/72/1 209/70/1 211/71/1
f 212/72/1 211/71/1 217/73/1
f 218/74/1 212/72/1 217/73/1
f 218/74/1 217/73/1 216/75/1
f 214/76/1 218/74/1 216/75/1
f 21/77/1 186/9/1 228/78/1
f 22/79/1 21/77/1 228/78/1
f 22/79/1 228/78/1 227/80/1
f 19/81/1 22/79/1 227/80/1
f 19/81/1 227/80/1 231/82/1
f 23/83/1 19/81/1 231/82/1
f 23/83/1 231/82/1 230/84/1
f 24/85/1 23/83/1 230/84/1
f 24/85/1 230/84/1 229/86/1
f 14/34/1 179/56/1 180/67/1
f 14/34/1 180/67/1 175/87/1
f 164/17/1 18/88/1 17/89/1
f 225/90/1 164/17/1 17/89/1
f 225/90/1 17/89/1 16/91/1
f 224/92/1 225/90/1 16/91/1
f 224/92/1 16/91/1 24/85/1
f 226/93/1 224/92/1 24/85/1
f 226/93/1 24/85/1 229/86/1
f 223/94/1 226/93/1 229/86/1
f 222/95/1 223/94/1 229/86/1
f 14/34/1 175/87/1 176/96/1
f 202/59/1 14/34/1 176/96/1
f 202/59/1 176/96/1 181/97/1
f 202/59/1 181/97/1 189/98/1
f 47/99/1 202/59/1 189/98/1
f 47/99/1 189/98/1 193/100/1
f 58/101/1 47/99/1 193/100/1
f 58/101/1 193/100/1 201/102/1
f 62/103/1 58/101/1 201/102/1
f 62/103/1 201/102/1 46/104/1
f 67/105/1 62/103/1 46/104/1
f 67/105/1 46/104/1 78/106/1
f 70/107/1 67/105/1 78/106/1
f 70/107/1 78/106/1 61/108/1
f 70/107/1 61/108/1 68/109/1
f 70/107/1 68/109/1 69/110/1
f 51/111/1 45/13/1 44/15/1
f 51/111/1 44/15/1 50/112/1
f 64/113/1 51/111/1 50/112/1
f 64/113/1 50/112/1 57/114/1
f 65/115/1 64/113/1 57/114/1
f 65/115/1 57/114/1 66/116/1
f 74/117/1 65/115/1 66/116/1
f 74/117/1 66/116/1 73/118/1
f 54/119/1 39/1/1 38/3/1
f 54/119/1 38/3/1 53/120/1
f 49/121/1 54/119/1 53/120/1
f 49/121/1 53/120/1 48/122/1
f 56/123/1 49/121/1 48/122/1
f 56/123/1 48/122/1 55/124/1
f 60/125/1 56/123/1 55/124/1
f 60/125/1 55/124/1 59/126/1
f 72/127/1 60/125/1 59/126/1
f 72/127/1 59/126/1 71/128/1
f 52/129/1 25/130/1 2/30/1
f 1/131/1 27/132/1 108/133/1
f 1/131/1 108/133/1 125/134/1
f 77/135/1 52/129/1 2/30/1
f 63/136/1 77/135/1 2/30/1
f 1/131/1 125/134/1 99/137/1
f 1/131/1 99/137/1 86/138/1
f 76/139/1 63/136/1 2/30/1
f 75/140/1 76/139/1 2/30/1
f 1/131/1 86/138/1 79/141/1
f 1/131/1 79/141/1 80/142/1
f 75/140/1 2/30/1 4/143/1
f 71/128/1 75/140/1 4/143/1
f 3/4/1 1/131/1 80/142/1
f 3/4/1 80/142/1 87/144/1
f 72/127/1 71/128/1 4/143/1
f 73/118/1 72/127/1 4/143/1
f 3/4/1 87/144/1 93/145/1
f 3/4/1 93/145/1 101/146/1
f 74/117/1 73/118/1 4/143/1
f 69/110/1 74/117/1 4/143/1
f 3/4/1 101/146/1 107/147/1
f 107/147/1 116/148/1 117/20/1
f 107/147/1 117/20/1 106/149/1
f 70/107/1 69/110/1 4/143/1
f 216/75/1 70/107/1 4/143/1
f 107/147/1 106/149/1 100/150/1
f 107/147/1 100/150/1 94/151/1
f 214/76/1 216/75/1 4/143/1
f 215/152/1 214/76/1 4/143/1
f 107/147/1 94/151/1 88/153/1
f 107/147/1 88/153/1 81/154/1
f 219/155/1 215/152/1 4/143/1
f 220/156/1 219/155/1 4/143/1
f 3/4/1 107/147/1 81/154/1
f 3/4/1 81/154/1 82/157/1
f 213/158/1 220/156/1 4/143/1
f 221/159/1 213/158/1 4/143/1
f 3/4/1 82/157/1 90/160/1
f 3/4/1 90/160/1 95/161/1
f 221/159/1 4/143/1 3/4/1
f 229/86/1 221/159/1 3/4/1
f 3/4/1 95/161/1 103/162/1
f 103/162/1 109/23/1 110/163/1
f 103/162/1 110/163/1 102/164/1
f 222/95/1 229/86/1 3/4/1
f 148/165/1 222/95/1 3/4/1
f 103/162/1 102/164/1 96/166/1
f 103/162/1 96/166/1 89/167/1
f 137/168/1 148/165/1 3/4/1
f 136/169/1 137/168/1 3/4/1
f 3/4/1 103/162/1 89/167/1
f 3/4/1 89/167/1 83/170/1
f 131/171/1 136/169/1 3/4/1
f 128/172/1 131/171/1 3/4/1
f 3/4/1 83/170/1 84/173/1
f 3/4/1 84/173/1 92/174/1
f 127/175/1 128/172/1 3/4/1
f 130/176/1 127/175/1 3/4/1
f 3/4/1 92/174/1 97/177/1
f 3/4/1 97/177/1 112/178/1
f 133/179/1 130/176/1 3/4/1
f 3/4/1 112/178/1 104/5/1
f 140/26/1 141/180/1 139/181/1
f 138/182/1 140/26/1 139/181/1
f 138/182/1 139/181/1 134/183/1
f 135/184/1 138/182/1 134/183/1
f 135/184/1 134/183/1 133/179/1
f 132/185/1 135/184/1 133/179/1
f 143/186/1 114/22/1 113/24/1
f 143/186/1 113/24/1 142/187/1
f 149/188/1 143/186/1 142/187/1
f 149/188/1 142/187/1 150/189/1
f 154/190/1 149/188/1 150/189/1
f 154/190/1 150/189/1 153/191/1
f 160/192/1 154/190/1 153/191/1
f 160/192/1 153/191/1 161/193/1
f 169/194/1 160/192/1 161/193/1
f 169/194/1 161/193/1 168/195/1
f 124/196/1 123/197/1 5/198/1
f 5/198/1 15/16/1 172/199/1
f 5/198/1 172/199/1 157/200/1
f 118/201/1 124/196/1 5/198/1
f 120/202/1 118/201/1 5/198/1
f 5/198/1 157/200/1 159/203/1
f 159/203/1 147/25/1 146/27/1
f 159/203/1 146/27/1 173/204/1
f 119/205/1 120/202/1 5/198/1
f 168/195/1 119/205/1 5/198/1
f 159/203/1 173/204/1 158/206/1
f 159/203/1 158/206/1 171/207/1
f 169/194/1 168/195/1 5/198/1
f 170/208/1 169/194/1 5/198/1
f 159/203/1 171/207/1 167/209/1
f 5/198/1 159/203/1 167/209/1
f 5/198/1 167/209/1 166/210/1
f 5/198/1 166/210/1 162/211/1
f 170/208/1 5/198/1 162/211/1
f 170/208/1 162/211/1 156/212/1
f 163/213/1 170/208/1 156/212/1
f 163/213/1 156/212/1 151/214/1
f 155/215/1 163/213/1 151/214/1
f 155/215/1 151/214/1 145/216/1
f 152/217/1 155/215/1 145/216/1
f 152/217/1 145/216/1 105/218/1
f 144/219/1 152/217/1 105/218/1
f 144/219/1 105/218/1 111/220/1
f 132/185/1 133/179/1 3/4/1
f 129/221/1 132/185/1 3/4/1
f 104/5/1 144/219/1 111/220/1
f 104/5/1 111/220/1 98/222/1
f 126/223/1 129/221/1 3/4/1
f 85/224/1 126/223/1 3/4/1
f 104/5/1 98/222/1 91/6/1
f 91/6/1 85/224/1 3/4/1
f 186/9/1 21/77/1 20/7/1
f 20/7/1 184/33/1 185/8/1
f 208/10/1 205/68/1 206/11/1
f 45/13/1 42/61/1 43/14/1
f 165/18/1 172/199/1 15/16/1
f 15/16/1 18/88/1 164/17/1
f 29/225/1 28/226/1 9/227/1
f 6/19/1 5/198/1 123/197/1
f 29/225/1 9/227/1 6/19/1
f 121/228/1 29/225/1 6/19/1
f 6/19/1 123/197/1 117/20/1
f 117/20/1 116/148/1 115/229/1
f 122/21/1 121/228/1 6/19/1
f 117/20/1 115/229/1 122/21/1
f 114/22/1 110/163/1 109/23/1
f 147/25/1 141/180/1 140/26/1
f 26/230/1 10/37/1 11/231/1
f 26/230/1 11/231/1 12/232/1
f 232/233/1 26/230/1 12/232/1
f 232/233/1 12/232/1 8/234/1
f 233/235/1 232/233/1 8/234/1
f 7/236/1 9/227/1 28/237/1
f 236/238/1 233/235/1 8/234/1
f 8/234/1 7/236/1 28/237/1
f 8/234/1 28/237/1 240/239/1
f 234/240/1 236/238/1 8/234/1
f 2/30/1 25/241/1 235/242/1
f 235/242/1 234/240/1 8/234/1
f 8/234/1 240/239/1 239/243/1
f 8/234/1 239/243/1 241/28/1
f 2/30/1 235/242/1 8/234/1
f 27/244/1 1/131/1 2/30/1
f 237/245/1 27/244/1 2/30/1
f 2/30/1 8/234/1 241/28/1
f 238/29/1 237/245/1 2/30/1
